<?xml version="1.0" encoding="UTF-8" standalone="no"?>
<svg
   xmlns:dc="http://purl.org/dc/elements/1.1/"
   xmlns:cc="http://creativecommons.org/ns#"
   xmlns:rdf="http://www.w3.org/1999/02/22-rdf-syntax-ns#"
   xmlns:svg="http://www.w3.org/2000/svg"
   xmlns="http://www.w3.org/2000/svg"
   xmlns:sodipodi="http://sodipodi.sourceforge.net/DTD/sodipodi-0.dtd"
   xmlns:inkscape="http://www.inkscape.org/namespaces/inkscape"
   id="Capa_1"
   enable-background="new 0 0 512 512"
   height="512"
   viewBox="0 0 512 512"
   width="512"
   version="1.1"
   sodipodi:docname="donut.svg"
   inkscape:version="1.0.1 (3bc2e813f5, 2020-09-07)"
   inkscape:export-filename="C:\Users\Erwin Pascual\Documents\School_Stuff\CMPT 496 W2021\Logo\donut.png"
   inkscape:export-xdpi="96"
   inkscape:export-ydpi="96">
  <metadata
     id="metadata937">
    <rdf:RDF>
      <cc:Work
         rdf:about="">
        <dc:format>image/svg+xml</dc:format>
        <dc:type
           rdf:resource="http://purl.org/dc/dcmitype/StillImage" />
      </cc:Work>
    </rdf:RDF>
  </metadata>
  <defs
     id="defs935" />
  <sodipodi:namedview
     pagecolor="#ffffff"
     bordercolor="#666666"
     borderopacity="1"
     objecttolerance="10"
     gridtolerance="10"
     guidetolerance="10"
     inkscape:pageopacity="0"
     inkscape:pageshadow="2"
     inkscape:window-width="1920"
     inkscape:window-height="1027"
     id="namedview933"
     showgrid="false"
     inkscape:zoom="0.36767578"
     inkscape:cx="-503.76963"
     inkscape:cy="92.596093"
     inkscape:window-x="-8"
     inkscape:window-y="-8"
     inkscape:window-maximized="1"
     inkscape:current-layer="Capa_1"
     inkscape:document-rotation="0" />
  <path
     id="path991"
     style="clip-rule:evenodd;fill:#bc9362;fill-opacity:1;fill-rule:evenodd;stroke-width:1.00602"
     d="m 259.70521,27.671297 c -1.41413,-0.0098 -2.829,-0.0075 -4.24312,0.0056 -6.88937,0.106839 -13.66573,0.457706 -20.5087,1.140303 -1.82131,0.184397 -3.83309,0.406586 -5.72384,0.641769 -3.34782,0.419358 -6.66746,0.900731 -9.94649,1.449096 -6.27895,1.051616 -12.63328,2.381798 -18.73408,3.917582 -22.9939,5.763726 -45.08745,15.071093 -65.2893,27.471436 -20.29383,12.418398 -38.685661,27.928032 -54.390398,45.798127 -1.086521,1.2542 -2.311101,2.65942 -3.424628,3.99385 -11.940727,14.22536 -22.248436,29.94048 -30.511003,46.50873 -3.37555,6.77354 -6.497949,13.86099 -9.19683,20.93097 -5.048244,13.16303 -8.879615,26.78828 -11.469994,40.64537 -0.301018,1.64403 -0.642589,3.5948 -0.918939,5.25134 -0.514075,3.18398 -0.980835,6.4146 -1.357946,9.54842 -0.576287,4.7184 -1.019367,9.59636 -1.315162,14.40166 -0.135434,2.27182 -0.256789,4.71881 -0.327395,7.06132 -0.152713,4.55168 -0.140588,9.36787 -0.02604,13.93662 0.195517,7.07118 0.71305,14.24211 1.514203,21.17652 0.663148,5.64815 1.553066,11.43053 2.628463,17.05059 1.41174,7.36443 3.204604,14.8041 5.346215,22.04895 3.798128,12.92113 8.77405,25.63331 14.76999,37.76207 0.610971,1.24641 1.208531,2.40337 1.847178,3.66087 0.735333,1.41908 1.57358,2.99611 2.366175,4.46634 6.456853,11.87626 14.038389,23.33759 22.486099,33.97656 2.82436,3.55873 5.691869,6.97375 8.722479,10.38178 19.130273,21.50468 42.342653,39.57942 67.966133,52.82968 12.80526,6.63481 26.22973,12.06792 40.02778,16.26001 5.35776,1.61765 10.91326,3.08915 16.43115,4.32125 11.08823,2.49272 22.54241,4.19838 33.8761,5.05788 7.68411,0.58776 15.2995,0.7871 23.01068,0.63061 3.19217,-0.0635 6.55575,-0.20211 9.70281,-0.38878 5.96902,-0.37648 11.96647,-0.96678 17.83745,-1.76905 5.87406,-0.80623 11.62223,-1.8125 17.40404,-3.05632 3.87628,-0.83076 7.62128,-1.73678 11.48115,-2.76983 12.98818,-3.47603 25.67042,-8.08675 37.86996,-13.73758 1.56125,-0.72697 3.29739,-1.55441 4.91279,-2.34757 3.18535,-1.5701 6.38143,-3.23552 9.42935,-4.91651 30.04928,-16.4819 56.43358,-39.58572 76.73884,-67.19601 10.26685,-13.94835 19.01541,-29.0155 25.99815,-44.86617 3.11497,-7.07439 5.95348,-14.47558 8.35788,-21.89827 1.4369,-4.39024 2.79868,-9.09062 3.96967,-13.56273 1.27013,-4.90772 2.39967,-9.88242 3.34464,-14.80718 0.73339,-3.84101 1.36757,-7.58976 1.91043,-11.47558 0.47349,-3.35553 0.86094,-6.61929 1.19611,-9.97998 0.38333,-3.86617 0.67872,-7.88549 0.86685,-11.82157 0.28289,-5.79644 0.35477,-11.66267 0.20277,-17.51378 -0.0681,-2.77752 -0.19642,-5.64163 -0.36089,-8.47321 -0.92694,-15.27331 -3.35803,-30.61597 -7.2306,-45.48376 -0.62433,-2.37886 -1.27761,-4.71087 -1.97925,-7.10224 -0.56584,-1.89941 -1.20186,-3.97021 -1.83973,-5.92288 -4.1403,-12.77921 -9.44231,-25.33704 -15.76148,-37.26725 -1.4336,-2.70548 0.82401,1.31934 -0.70298,-1.31509 -5.8515,-2.19267 -14.29474,-5.5513 -17.04463,-8.92933 -5.78387,-6.82823 -7.66954,-18.80952 -7.24907,-27.6751 -0.88021,-1.11959 0.0514,0.0596 -0.84894,-1.04424 -23.49672,17.43804 -55.62942,16.84181 -78.09679,-1.44911 -20.49716,-16.688591 -28.27768,-49.99622 -19.71324,-75.262464 -36.49706,11.184809 -47.69457,-7.402467 -71.28589,-9.878894 -4.23527,-0.250202 -8.47581,-0.385485 -12.71818,-0.414825 z m -1.26494,150.945943 c 19.33538,-0.0375 38.621,6.75355 53.60538,18.98706 15.49883,12.52 26.44034,30.60983 30.09991,50.21424 3.85962,20.19943 0.21834,41.80108 -10.36876,59.46502 -10.11232,17.07603 -26.32686,30.49 -45.09311,37.00497 -17.65019,6.22898 -37.35888,6.40211 -55.11587,0.48365 -15.78121,-5.20018 -29.91927,-15.18483 -40.16545,-28.2583 -9.46377,-12.00311 -15.64105,-26.58957 -17.51936,-41.76894 -2.27015,-17.76735 1.12651,-36.25483 9.82371,-51.93678 9.29852,-16.90943 24.46867,-30.53289 42.35118,-37.81974 10.24144,-4.20758 21.31132,-6.37511 32.38237,-6.37118 z"
     sodipodi:nodetypes="sccccccccccccccccccccccccccccccccsccccccccccccccccccccccccsccccccccccc" />
  <path
     id="path991-9"
     style="clip-rule:evenodd;fill:#ebdfcf;fill-opacity:0.189516;fill-rule:evenodd;stroke-width:1.00602"
     d="m 33.46112,281.04568 c -0.11183,3.32756 -0.100611,6.79822 0,10.11041 0.186293,5.56114 0.678904,11.20077 1.44226,16.6544 0.631862,4.442 1.480219,8.98911 2.504881,13.40902 1.345137,5.79179 3.05293,11.64363 5.093505,17.34141 3.618941,10.16186 8.359674,20.1587 14.072739,29.69746 0.582147,0.98021 1.151968,1.89047 1.760488,2.87942 0.700639,1.11605 1.498452,2.35693 2.253649,3.51319 6.152241,9.34014 13.376309,18.35284 21.425476,26.7199 2.691113,2.79881 5.423509,5.48558 8.311142,8.16585 18.22776,16.91244 40.34566,31.12711 64.76028,41.54783 12.20114,5.218 24.99186,9.49167 38.13895,12.78856 5.10499,1.27221 10.39886,2.42944 15.65643,3.39842 10.56511,1.96041 21.47786,3.30133 32.27686,3.97729 7.32159,0.46226 14.57869,0.61876 21.92608,0.4957 3.04157,-0.0502 6.24677,-0.15926 9.24536,-0.30607 5.68741,-0.29607 11.40048,-0.75967 16.99448,-1.39063 5.59694,-0.63405 11.07416,-1.42548 16.5832,-2.40368 3.6934,-0.65336 7.26293,-1.36666 10.9407,-2.17911 12.37543,-2.73374 24.45857,-6.35997 36.08258,-10.80407 1.48758,-0.57177 3.14117,-1.22262 4.68035,-1.84642 3.03508,-1.2348 6.0807,-2.54381 8.98482,-3.86585 28.63163,-12.96227 53.77065,-31.1317 73.11795,-52.84594 9.78249,-10.96978 18.12007,-22.82084 24.77338,-35.28664 2.96802,-5.56368 5.67217,-11.38403 7.96315,-17.22163 1.3691,-3.45272 2.66576,-7.1489 3.7815,-10.666 1.21021,-3.85973 2.28748,-7.77265 3.18787,-11.64577 0.69879,-3.02081 1.30279,-5.96815 1.82003,-9.02419 0.45116,-2.63896 0.81957,-5.20674 1.13893,-7.84979 0.36525,-3.04054 0.64702,-6.20143 0.82627,-9.29699 0.26954,-4.55864 0.33838,-9.17169 0.19355,-13.77331 -0.003,-0.0965 -0.01,-0.19605 -0.0131,-0.29277 H 339.38781 c 1.19769,13.57156 -2.58347,27.45084 -11.07098,39.13917 -9.63524,13.42952 -25.08543,23.97823 -42.96633,29.10195 -16.8175,4.89882 -35.59577,5.03555 -52.51503,0.38093 -15.03668,-4.0897 -28.50829,-11.9419 -38.27108,-22.2236 -9.01729,-9.43991 -14.9033,-20.91183 -16.693,-32.8497 -0.69483,-4.48862 -0.82478,-9.03516 -0.41686,-13.54875 z" />
  <path
     id="path1021"
     style="color:#000000;font-style:normal;font-variant:normal;font-weight:normal;font-stretch:normal;font-size:medium;line-height:normal;font-family:sans-serif;font-variant-ligatures:normal;font-variant-position:normal;font-variant-caps:normal;font-variant-numeric:normal;font-variant-alternates:normal;font-variant-east-asian:normal;font-feature-settings:normal;font-variation-settings:normal;text-indent:0;text-align:start;text-decoration:none;text-decoration-line:none;text-decoration-style:solid;text-decoration-color:#000000;letter-spacing:normal;word-spacing:normal;text-transform:none;writing-mode:lr-tb;direction:ltr;text-orientation:mixed;dominant-baseline:auto;baseline-shift:baseline;text-anchor:start;white-space:normal;shape-padding:0;shape-margin:0;inline-size:0;clip-rule:evenodd;display:inline;overflow:visible;visibility:visible;isolation:auto;mix-blend-mode:normal;color-interpolation:sRGB;color-interpolation-filters:linearRGB;solid-color:#000000;solid-opacity:1;vector-effect:none;fill:#dd8903;fill-opacity:1;fill-rule:evenodd;stroke:none;stroke-width:25;stroke-linecap:round;stroke-linejoin:round;stroke-miterlimit:4;stroke-dasharray:none;stroke-dashoffset:0;stroke-opacity:1;color-rendering:auto;image-rendering:auto;shape-rendering:auto;text-rendering:auto;enable-background:accumulate;stop-color:#000000"
     d="m 259.59732,10.04032 c -1.47035,-0.0069 -2.9403,-0.0016 -4.41054,0.01674 h -0.006 c -33.25686,0.402578 -66.4039,7.355292 -96.99084,20.549631 -0.004,0.0016 -0.008,0.0039 -0.0111,0.0056 -0.002,7.77e-4 -0.004,0.001 -0.006,0.0019 C 124.30239,45.172867 93.780596,67.197041 69.227902,94.664629 44.210082,122.60189 25.473193,156.07352 14.910305,192.10741 8.1910183,214.95962 4.7076738,238.75401 4.6438603,262.58854 a 11.906472,11.906472 0 0 0 0.00558,0.36831 c 0.4095749,14.50078 2.7722859,32.22677 7.7700567,50.57326 2.026018,7.92009 4.654788,16.64623 9.85534,24.94529 a 11.906472,11.906472 0 0 0 0.04279,0.0689 c 3.52248,5.53825 8.95696,11.67926 17.640278,14.24169 a 11.906472,11.906472 0 0 0 0.05953,0.0168 c 10.041058,2.90566 19.901695,-0.0734 27.119857,-5.97311 2.491331,-2.02029 4.483617,-4.23922 6.285617,-6.50511 2.458481,1.72717 6.830554,3.70366 11.840174,2.08342 5.909835,-1.91139 7.657789,-6.00869 8.668533,-8.45833 a 11.906472,11.906472 0 0 0 0.0093,-0.0223 c 2.359589,-5.7518 1.804678,-7.97911 2.189455,-12.53217 0.347439,-4.1112 0.635666,-8.88868 0.948702,-13.58691 0.390121,0.40423 0.627388,0.72094 1.158905,1.20542 a 11.906472,11.906472 0 0 0 0.727338,0.61014 c 2.829314,2.19261 9.298594,3.51777 13.365544,1.74487 2.14773,-0.93627 3.49526,-2.01163 4.4775,-3.06003 2.84634,2.23094 5.9373,4.33218 9.57631,5.98984 8.9511,4.09241 19.22695,5.28891 29.14561,2.63405 a 11.906472,11.906472 0 0 0 0.11906,-0.0316 c 8.96343,-2.49875 16.12198,-8.17771 21.11141,-15.05089 5.23192,-7.11566 7.81336,-12.65946 10.81148,-21.57088 a 11.906472,11.906472 0 0 0 0.5562,-2.54475 c 1.37583,-13.02744 2.30741,-24.14012 6.40095,-36.05998 0.002,-0.005 0.002,-0.009 0.004,-0.013 0.25308,-0.70565 0.55302,-1.54285 0.75897,-2.0797 a 11.906472,11.906472 0 0 0 0.004,-0.01 c 4.36752,-11.41281 12.05118,-21.69453 21.75319,-29.19398 0.46902,-0.35642 1.0354,-0.79055 1.26865,-0.95987 a 11.906472,11.906472 0 0 0 0.093,-0.067 c 9.96099,-7.38018 22.17215,-11.93581 34.53834,-12.88932 a 11.906472,11.906472 0 0 0 0.041,-0.002 c 11.64029,-0.93795 23.60708,1.18911 34.11048,6.13866 a 11.906472,11.906472 0 0 0 0.0149,0.008 c 6.64525,3.11976 12.81495,7.38068 18.1537,12.49682 l 0.002,0.002 c 0.46187,0.45928 0.90878,0.89222 1.05102,1.03613 a 11.906472,11.906472 0 0 0 0.0502,0.0521 c 9.29691,9.29231 15.83871,21.53694 18.36762,34.423 a 11.906472,11.906472 0 0 0 0.0186,0.0967 c 0.86697,4.23259 1.25074,8.78166 1.32447,13.55528 a 11.906472,11.906472 0 0 0 0.006,0.18229 c 0.37242,12.12818 1.02015,25.31994 5.18437,38.62334 1.70976,5.52066 4.29742,10.85434 7.8426,15.67777 3.55272,4.92244 8.26412,10.1194 15.07693,13.62968 a 11.906472,11.906472 0 0 0 0.0781,0.041 c 5.59115,2.82924 13.34288,4.21073 20.76169,-0.16927 6.30822,-3.65403 8.78114,-9.28277 10.08042,-13.38786 -0.008,0.0223 -0.0161,0.0429 -0.0242,0.0652 l 0.1916,-0.57853 c -0.0494,0.16286 -0.11416,0.34513 -0.16742,0.51342 1.10531,-3.0633 2.19596,-5.96524 3.31674,-8.77271 2.31524,1.57807 5.04125,2.88782 8.54204,3.29999 a 11.906472,11.906472 0 0 0 0.039,0.004 c 2.50573,0.28635 4.72384,-0.0221 6.79345,-0.56736 1.89385,2.05655 3.99802,4.02289 6.6037,5.68663 6.33978,4.10571 13.92431,5.44841 21.2714,3.80969 8.49554,-1.81653 15.07171,-6.89021 19.66417,-12.78515 0.48097,-0.58167 0.80699,-0.99186 1.25936,-1.54955 0.37036,1.18416 0.7381,2.29948 1.11798,3.59391 2.03652,7.14784 3.68506,15.15541 6.42141,23.60594 a 11.906472,11.906472 0 0 0 0.0614,0.18788 c 1.63056,4.76387 4.63524,11.18549 11.8997,15.01925 a 11.906472,11.906472 0 0 0 0.21206,0.10975 c 7.29051,3.66175 15.40021,2.3487 21.25838,-2.96887 5.58233,-4.85647 7.57895,-10.59927 8.9643,-14.31424 a 11.906472,11.906472 0 0 0 0.0595,-0.16184 c 2.86785,-8.04389 4.21452,-15.92152 5.37039,-23.17251 a 11.906472,11.906472 0 0 0 0.0149,-0.0912 c 2.3496,-15.51193 3.40547,-30.93302 4.17801,-46.09391 a 11.906472,11.906472 0 0 0 0.013,-0.39064 c 0.10534,-5.83116 -0.20606,-11.39382 -0.52085,-16.68041 a 11.906472,11.906472 0 0 0 -0.006,-0.0911 c -2.23932,-33.31132 -11.09897,-66.13419 -26.07442,-96.01795 -0.59457,-1.19082 -1.21898,-2.36646 -1.8323,-3.5474 a 27.930144,30.429112 39.149518 0 1 -33.91145,-0.44087 27.930144,30.429112 39.149518 0 1 -8.35044,-30.23383 63.477599,69.157075 39.149518 0 1 -84.3731,4.68584 63.477599,69.157075 39.149518 0 1 -11.86826,-84.689524 27.930144,30.429112 39.149518 0 1 -32.48467,-1.359807 27.930144,30.429112 39.149518 0 1 -9.74,-20.979337 C 288.68198,11.421069 274.14304,10.108951 259.59732,10.04032 Z M 116.58141,294.04638 c 0.42688,0.75952 0.29036,1.02023 0.25485,0.91522 -0.028,-0.0828 -0.16718,-0.60797 -0.25485,-0.91522 z m 332.14059,4.72676 c 0.0282,-0.0232 0.21,0.17295 0.40367,0.41111 0.0315,0.0535 0.0691,0.12381 0.11161,0.19719 -0.36599,-0.32465 -0.5543,-0.5762 -0.51528,-0.6083 z m -67.24065,4.08129 c 0.0292,0.0461 0.0762,0.10049 0.10603,0.14696 0.0621,0.0916 0.0581,0.10463 0.12278,0.19903 z" />
  <path
     id="path886"
     style="clip-rule:evenodd;fill:#fca926;fill-opacity:1;fill-rule:evenodd;stroke-width:1.00602"
     d="m 259.53779,21.945601 c -1.40241,-0.0066 -2.80548,-7.6e-4 -4.20777,0.01674 -31.6988,0.38302 -63.32428,7.020531 -92.43893,19.582327 -32.25576,13.861574 -61.39159,34.88177 -84.786066,61.053632 -23.837141,26.61636 -41.717844,58.56354 -51.77123,92.85933 -6.403818,21.77629 -9.723883,44.46471 -9.784653,67.16253 0.381012,13.48952 2.630153,30.47405 7.381275,47.88155 1.91893,7.5112 4.288798,15.04053 8.432287,21.65273 2.590141,4.07238 6.220562,7.81193 10.964019,9.21171 5.618792,1.62596 11.838898,-0.11478 16.295354,-3.76505 4.974093,-4.02629 8.211235,-9.71474 10.952858,-15.39501 3.763228,-7.88356 9.039791,15.22952 12.351729,7.20269 2.245721,-5.47421 2.150845,-42.46326 5.829868,-47.14677 2.188062,-2.74817 3.736524,-4.83824 7.373833,-5.06346 5.901606,0.28978 8.367296,21.41064 10.128786,23.01626 3.76953,2.92123 5.26864,-14.0606 8.42113,-10.52502 4.7157,5.46489 9.98675,10.74932 16.64507,13.78036 6.54523,2.99449 14.14724,3.83055 21.1263,1.96251 5.95463,-1.65997 11.09044,-5.62712 14.69186,-10.5957 4.83584,-6.56846 6.23024,-9.69173 9.14474,-18.35459 1.35557,-12.8356 2.33316,-25.15159 6.98505,-38.6903 0.25234,-0.70352 0.59785,-1.67586 0.90406,-2.47407 5.17048,-13.51102 14.14894,-25.51545 25.59078,-34.35976 0.39391,-0.299 1.05021,-0.80725 1.55512,-1.17378 11.79509,-8.73908 26.07421,-14.06371 40.71048,-15.19226 13.70675,-1.10444 27.69516,1.37304 40.14126,7.23804 7.84931,3.68503 15.07375,8.68033 21.33277,14.67884 0.31099,0.31492 0.87738,0.85403 1.28168,1.26308 10.99815,10.99271 18.63725,25.29127 21.63227,40.55236 1.06198,5.18473 1.48466,10.47473 1.56629,15.75962 0.36603,11.91951 1.06321,24.00454 4.65236,35.45727 1.34834,4.35803 3.37388,8.50685 6.081,12.18431 2.90529,4.03585 6.45916,7.77296 10.92309,10.07298 2.87909,1.45687 6.52709,1.9005 9.39587,0.17858 2.59723,-1.49016 4.00807,-4.32052 4.84769,-7.0855 2.54867,-7.06763 5.14428,-14.26613 8.91593,-20.8361 0.54864,-0.93653 1.11782,-1.86456 1.77091,-2.73263 3.01828,-4.5943 5.4035,2.88443 6.95529,5.14903 1.54568,2.43359 3.83612,4.74416 6.83251,5.09695 2.84098,0.32466 5.46033,-1.41611 7.15619,-3.56228 0.49411,-0.5772 0.94368,-1.18969 1.38958,-1.8044 2.25651,4.80028 5.39444,9.42057 9.94091,12.30894 3.59213,2.33655 8.11029,3.1369 12.28847,2.19132 5.22275,-1.10035 9.73748,-4.46262 12.947,-8.64621 2.98523,-3.59115 5.5623,-7.62614 9.32519,-10.48037 1.31396,-0.90446 2.734,-1.85345 4.35286,-2.03877 1.46475,0.2909 2.33616,1.69226 3.1456,2.82192 0.50189,0.75874 1.0651,1.7759 1.40445,2.43872 2.13655,4.28154 3.50109,8.89445 4.84396,13.47157 2.20351,7.72361 3.83418,15.60719 6.3098,23.2525 1.13216,3.30777 2.99653,6.66002 6.1926,8.34672 2.58385,1.29777 5.88067,0.77764 7.99329,-1.17937 2.91765,-2.47404 4.4269,-6.12684 5.73127,-9.62467 2.4244,-6.80006 3.694,-13.93926 4.82722,-21.04817 2.25318,-14.87537 3.29382,-29.90269 4.05896,-44.91825 0.095,-5.25658 -0.1899,-10.51211 -0.50226,-15.75776 -2.13313,-31.73415 -10.58503,-63.0401 -24.83739,-91.48092 -0.14924,-0.29897 -0.30896,-0.5927 -0.45946,-0.89104 a 27.930144,32.848021 39.149518 0 1 -29.64044,-2.29362 27.930144,32.848021 39.149518 0 1 -7.43708,-31.35367 63.477599,74.654593 39.149518 0 1 -87.23036,8.19417 63.477599,74.654593 39.149518 0 1 -8.94756,-88.277656 27.930144,32.848021 39.149518 0 1 -33.46128,-0.158116 27.930144,32.848021 39.149518 0 1 -8.862,-15.748455 c -12.99823,-2.187696 -26.17302,-3.323502 -39.35439,-3.385564 z" />
  <path
     id="path1057"
     style="clip-rule:evenodd;fill:#f0dac8;fill-opacity:0.201613;fill-rule:evenodd;stroke-width:1.00602"
     d="m 255.86203,42.869132 c -1.18332,-8.42e-4 -2.36611,0.0068 -3.54926,0.02418 -33.11137,0.589637 -66.08978,8.941154 -95.3799,24.424429 -34.9204,18.386652 -64.61243,46.612089 -84.592606,80.658279 -14.300757,24.21009 -23.70181,51.29802 -27.477016,79.16082 H 152.09449 c 0.29836,-1.07996 0.619,-2.19939 0.94684,-3.26279 5.88263,-19.07997 17.33664,-36.34353 32.43631,-49.38088 4.83332,-4.19158 10.03844,-7.95382 15.52895,-11.23747 0.71765,-0.4228 1.67082,-0.98673 2.49266,-1.43978 2.95452,-1.66729 5.99464,-3.17984 9.09452,-4.5575 0.55644,-0.23943 1.38862,-0.6079 2.06111,-0.8836 16.53558,-6.87755 34.79339,-9.57413 52.61018,-7.73471 0.81467,0.0955 1.90501,0.20577 2.82192,0.33484 8.24132,1.08203 16.34809,3.1467 24.12866,6.06611 1.72965,0.65271 3.62339,1.41279 5.38156,2.19318 0.56554,0.24669 1.126,0.50629 1.6872,0.76268 l 25.2392,-43.92676 a 63.477599,80.270209 39.149518 0 1 4.99649,-57.502515 c -3.92033,-1.480816 -7.88583,-2.838506 -11.88668,-4.085 a 27.930144,35.318891 39.149518 0 1 -15.86564,-4.280321 c -7.6215,-1.738579 -15.33852,-3.059141 -23.10927,-3.930603 -8.2297,-0.941862 -16.51323,-1.396695 -24.79647,-1.402591 z" />
</svg>
